<?xml version="1.0" standalone="no"?>
<!DOCTYPE svg PUBLIC "-//W3C//DTD SVG 20010904//EN"
 "http://www.w3.org/TR/2001/REC-SVG-20010904/DTD/svg10.dtd">
<svg version="1.0" xmlns="http://www.w3.org/2000/svg"
 width="300.000000pt" height="146.000000pt" viewBox="0 0 300.000000 146.000000"
 preserveAspectRatio="xMidYMid meet">

<g transform="translate(0.000000,146.000000) scale(0.100000,-0.100000)"
fill="#000000" stroke="none">
<path d="M0 730 l0 -730 1500 0 1500 0 0 730 0 730 -1500 0 -1500 0 0 -730z
m1420 540 l0 -90 -90 0 -90 0 0 -200 0 -200 -90 0 -90 0 0 200 0 200 -175 0
c-126 0 -175 -3 -175 -12 0 -6 25 -37 55 -69 88 -92 116 -180 80 -249 -31 -60
-53 -65 -342 -68 l-263 -3 0 88 0 88 142 -3 c154 -4 228 3 228 20 0 6 -25 37
-55 69 -94 99 -119 198 -68 268 36 48 58 50 511 50 l422 1 0 -90z m528 -177
l90 -268 1 268 1 267 183 0 c100 0 202 -5 227 -11 98 -22 157 -97 148 -188 -6
-63 -37 -104 -98 -132 -28 -12 -50 -25 -50 -29 0 -4 11 -17 24 -29 23 -22 31
-22 155 -19 l131 3 0 -87 0 -88 -163 0 -162 0 -90 90 -90 91 -5 -88 -5 -88
-203 -3 -203 -2 -15 37 c-27 69 -25 68 -111 71 l-80 3 -20 -53 -20 -53 -102
-3 c-55 -1 -101 1 -101 5 0 8 180 555 187 566 2 4 67 7 143 7 l138 0 90 -267z
m-1488 -490 c19 -62 38 -113 41 -113 3 0 19 51 36 113 l29 112 86 3 86 3 38
-115 c21 -63 41 -113 45 -111 3 3 9 22 12 42 4 21 14 71 23 111 l16 72 95 0
c85 0 94 -2 89 -17 -3 -10 -35 -139 -72 -286 l-67 -268 -96 3 -95 3 -31 102
c-17 56 -33 104 -36 107 -3 3 -16 -36 -28 -87 -13 -50 -25 -100 -28 -110 -4
-16 -15 -17 -100 -15 l-96 3 -83 275 c-46 151 -84 279 -84 283 0 4 42 6 92 5
l93 -3 35 -112z m1070 -145 c47 -141 87 -257 90 -258 3 0 5 116 5 257 l0 258
185 3 c202 3 256 -5 308 -44 44 -34 62 -73 62 -137 0 -71 -28 -114 -96 -147
-50 -24 -51 -26 -36 -48 14 -21 19 -22 178 -22 89 0 165 4 168 9 3 5 -19 34
-50 66 -70 71 -109 151 -100 207 4 21 14 51 23 65 31 47 65 53 288 53 l205 0
0 -85 0 -85 -112 0 c-117 0 -158 -6 -158 -21 0 -5 24 -33 53 -63 30 -29 64
-73 75 -98 26 -53 29 -133 6 -166 -34 -49 -54 -52 -346 -52 l-273 0 -87 92
-87 93 -1 -92 0 -93 -208 0 -208 0 -15 47 -15 48 -84 3 -85 3 -18 -51 -18 -50
-104 0 -103 0 95 285 95 286 141 -3 141 -3 86 -257z"/>
<path d="M1681 1122 c-19 -53 -36 -103 -39 -109 -3 -10 15 -13 72 -13 42 0 76
1 76 3 0 7 -68 208 -71 212 -2 2 -20 -40 -38 -93z"/>
<path d="M2250 1160 l0 -51 81 3 c93 3 111 16 93 65 -9 27 -12 28 -92 31 l-82
3 0 -51z"/>
<path d="M1296 570 c-30 -77 -66 -184 -66 -196 0 -11 16 -14 70 -14 50 0 70 4
70 13 0 29 -68 211 -74 197z"/>
<path d="M1830 520 l0 -50 74 0 c95 0 106 4 106 44 0 48 -15 56 -102 56 l-78
0 0 -50z"/>
</g>
</svg>
